<svg xmlns="http://www.w3.org/2000/svg" width="23" height="21"><g fill="none" fill-rule="evenodd" stroke="#202020" stroke-width="2"><path d="M18 19.2c0 .442-.38.8-.85.8H1.85c-.47 0-.85-.358-.85-.8v-8.4c0-.441.38-.8.85-.8h15.3c.469 0 .85.359.85.8v8.4z"/><path stroke-linecap="round" d="M3 14.399h4.812M11.94 12H14M3 17.6h.688m2.75 0h.687m2.75 0h.687m2.75 0h.686"/><path d="M3.826 9.141L3.05 7.09a.805.805 0 0 1 .503-1.041L17.797 1.05a.852.852 0 0 1 1.08.485l3.071 8.138a.785.785 0 0 1-.028.62.83.83 0 0 1-.474.42L17.777 12M3.722 8.868l15.827-5.554"/><path stroke-linecap="round" d="M16 8l2-1"/></g></svg>